<svg xmlns="http://www.w3.org/2000/svg" width="80" height="48" viewBox="0 0 80 48">
  <!-- Cat 2 (gray) - Frame 1 -->
  <g transform="translate(0,0)">
    <polygon points="8,8 14,0 14,10" fill="#8a8a9a"/>
    <polygon points="26,8 32,0 26,10" fill="#8a8a9a"/>
    <ellipse cx="20" cy="18" rx="14" ry="10" fill="#8a8a9a"/>
    <circle cx="15" cy="16" r="2" fill="#2ecc40"/>
    <circle cx="25" cy="16" r="2" fill="#2ecc40"/>
    <ellipse cx="20" cy="20" rx="3" ry="1.5" fill="#b0b0ba"/>
    <rect x="8" y="28" width="5" height="12" rx="2" fill="#8a8a9a" transform="rotate(-10,10,28)"/>
    <rect x="16" y="28" width="5" height="12" rx="2" fill="#8a8a9a" transform="rotate(10,18,28)"/>
    <rect x="22" y="28" width="5" height="12" rx="2" fill="#8a8a9a" transform="rotate(-10,24,28)"/>
    <rect x="28" y="28" width="5" height="12" rx="2" fill="#8a8a9a" transform="rotate(10,30,28)"/>
    <path d="M34,18 Q40,16 38,22" stroke="#8a8a9a" stroke-width="2.5" fill="none" stroke-linecap="round"/>
  </g>
  <!-- Cat 2 (gray) - Frame 2 -->
  <g transform="translate(40,0)">
    <polygon points="8,8 14,0 14,10" fill="#8a8a9a"/>
    <polygon points="26,8 32,0 26,10" fill="#8a8a9a"/>
    <ellipse cx="20" cy="18" rx="14" ry="10" fill="#8a8a9a"/>
    <circle cx="15" cy="16" r="2" fill="#2ecc40"/>
    <circle cx="25" cy="16" r="2" fill="#2ecc40"/>
    <ellipse cx="20" cy="20" rx="3" ry="1.5" fill="#b0b0ba"/>
    <rect x="8" y="28" width="5" height="12" rx="2" fill="#8a8a9a" transform="rotate(10,10,28)"/>
    <rect x="16" y="28" width="5" height="12" rx="2" fill="#8a8a9a" transform="rotate(-10,18,28)"/>
    <rect x="22" y="28" width="5" height="12" rx="2" fill="#8a8a9a" transform="rotate(10,24,28)"/>
    <rect x="28" y="28" width="5" height="12" rx="2" fill="#8a8a9a" transform="rotate(-10,30,28)"/>
    <path d="M34,18 Q40,20 38,14" stroke="#8a8a9a" stroke-width="2.5" fill="none" stroke-linecap="round"/>
  </g>
</svg>
